# xmcd
#
# Track frame offsets: 
#        150
#        20757
#        41561
#        61055
#        73747
#        92661
#        111955
#        132152
#        152186
#        174020
#
# Disc length: 2630 seconds
#
# Revision: 0
# Processed by: cddbd v1.5.2PL0 Copyright (c) Steve Scherf et al.
# Submitted via: ExactAudioCopyFreeDBPlugin 1.0
#
DISCID=7f0a440a
DTITLE=Arnold McCuller - Soon As I Get Paid
DYEAR=2011
DGENRE=Blues
TTITLE0=Soon As I Get Paid
TTITLE1=All Good
TTITLE2=Gods And Monsters
TTITLE3=Gasoline And Matches
TTITLE4=There Is Something On Your Mind
TTITLE5=The River Knows Your Name
TTITLE6=Lonely Teardrops
TTITLE7=Do Right Woman, Do Right Man
TTITLE8=The Whale Have Swallowed Me
TTITLE9=Don't Go Nowhere
EXTD=
EXTT0=
EXTT1=
EXTT2=
EXTT3=
EXTT4=
EXTT5=
EXTT6=
EXTT7=
EXTT8=
EXTT9=
PLAYORDER=
